<svg xmlns="http://www.w3.org/2000/svg" viewBox="0 0 32 32" shape-rendering="crispEdges">
  <defs>
    <linearGradient id="bg" x1="0" y1="0" x2="1" y2="1">
      <stop offset="0%" stop-color="#7c3aed"/>
      <stop offset="100%" stop-color="#06b6d4"/>
    </linearGradient>
  </defs>
  <rect width="32" height="32" fill="url(#bg)"/>
  <g fill="#2a1810">
    <rect x="12" y="3" width="2" height="1"/>
    <rect x="15" y="3" width="2" height="1"/>
    <rect x="18" y="3" width="2" height="1"/>
    <rect x="10" y="4" width="12" height="1"/>
    <rect x="9" y="5" width="14" height="1"/>
    <rect x="8" y="6" width="16" height="3"/>
    <rect x="8" y="9" width="2" height="3"/>
    <rect x="22" y="9" width="2" height="3"/>
    <rect x="10" y="13" width="2" height="1"/>
    <rect x="20" y="13" width="2" height="1"/>
    <rect x="10" y="14" width="3" height="1"/>
    <rect x="19" y="14" width="3" height="1"/>
    <rect x="10" y="15" width="12" height="5"/>
    <rect x="11" y="20" width="10" height="1"/>
    <rect x="12" y="21" width="8" height="1"/>
  </g>
  <g fill="#f4c2a1">
    <rect x="10" y="9" width="12" height="4"/>
    <rect x="12" y="13" width="8" height="1"/>
    <rect x="13" y="14" width="6" height="1"/>
    <rect x="12" y="22" width="8" height="1"/>
    <rect x="11" y="23" width="10" height="1"/>
    <rect x="15" y="24" width="2" height="3"/>
  </g>
  <g fill="#0a0a0a">
    <rect x="12" y="10" width="2" height="1"/>
    <rect x="18" y="10" width="2" height="1"/>
  </g>
  <rect x="22" y="12" width="1" height="1" fill="#fbbf24"/>
  <g fill="#0a0a0a">
    <rect x="10" y="24" width="5" height="1"/>
    <rect x="17" y="24" width="5" height="1"/>
    <rect x="9" y="25" width="6" height="1"/>
    <rect x="17" y="25" width="6" height="1"/>
    <rect x="8" y="26" width="7" height="1"/>
    <rect x="17" y="26" width="7" height="1"/>
    <rect x="8" y="27" width="16" height="1"/>
    <rect x="7" y="28" width="18" height="1"/>
    <rect x="6" y="29" width="20" height="1"/>
    <rect x="5" y="30" width="22" height="1"/>
    <rect x="4" y="31" width="24" height="1"/>
  </g>
</svg>
