<svg viewBox="0 0 914.06 913.87" xmlns="http://www.w3.org/2000/svg" fill="#5EA48F">
  <path d="M348.74,499.02c-97.52,117.9-149.74,261.51-153.58,413.32-6.49,1.78-13.63,1.97-20.21.77,2.13-79.8,16.16-155.98,43.67-231.23,16.23-99.41,2.13-201.12-51.26-288.76,3.59-3.72,11.18-7.92,17.35-9.6,44.81,70.81,60.62,149.26,61.47,235.08,27.22-51.95,57.79-96.88,93.78-141.68,19.2-119.92,76.58-226.89,170.33-303.53,52.48-41.54,109.3-72.34,173.31-92.41,10.85-3.5,19.76-10.74,26.5-20.02-10.59-18.7-8.09-37.74,5.46-50.47,14.3-13.43,36.54-13.95,51.56-1.66,14.2,11.62,17.39,32.14,9.56,48.16-9.02,18.45-29.26,24.4-50.43,18.59-5.81-1.59-14.97,10.22-16.32,17.19-19,97.97-61.17,188.74-130.6,260.37-50.08,51.67-109.13,86.5-176.49,116.99,19.72,5.13,36.93,11.62,53.66,23.26,39.08-18.07,83.09-15.21,122.5,6.85,110.56,61.89,139.68,215.37,66.49,285.37-35.98,34.41-88.85,39.87-135.37,18.77-76.53-34.71-125.8-117.44-120.69-201.36,2.44-40,18.11-72.84,49.42-97.79-28.05-17.36-58.47-20.05-90.1-6.22ZM760.76,38.56c0-10.14-8.23-18.36-18.38-18.36s-18.38,8.22-18.38,18.36,8.23,18.36,18.38,18.36,18.38-8.22,18.38-18.36ZM369.57,439.37L664.04,109.87c-150.21,53.43-262.58,176.29-294.47,329.5ZM562.78,342.24c58.29-62.49,100.03-133.89,118.66-220.59l-295.94,331.01c68.1-23.57,125.13-61.09,177.27-110.42ZM621.87,620.45c22.89-7.02-22.09-82.77-87.89-97.86-4.57-1.05-13.8,5.61-13.86,9.63-.05,3.35,4.65,10.04,7.89,10.94,73.27,20.36,74.67,83.17,93.87,77.28Z"/>
  <polygon points="99.25 913.87 0 913.87 0 0 98.71 0 98.71 35.66 35.66 35.66 35.66 878.21 99.25 878.21 99.25 913.87"/>
  <polygon points="814.81 0 914.06 0 914.06 913.87 815.35 913.87 815.35 878.21 878.4 878.21 878.4 35.66 814.81 35.66 814.81 0"/>
</svg>
